<?xml version="1.0" encoding="UTF-8"?>
<svg width="74px" height="63px" viewBox="0 0 74 63" version="1.1" xmlns="http://www.w3.org/2000/svg" xmlns:xlink="http://www.w3.org/1999/xlink">
    <title>Group 5</title>
    <g id="Marketing-Website" stroke="none" stroke-width="1" fill="none" fill-rule="evenodd">
        <g id="Desktop" transform="translate(-145.000000, -622.000000)" fill="#E85A36">
            <g id="section---how-does-it-work?" transform="translate(0.000000, 441.000000)">
                <g id="Step-box" transform="translate(42.000000, 107.000000)">
                    <g id="Group-5" transform="translate(103.000000, 74.000000)">
                        <path d="M65.1861994,9.9477035 L55.8871501,9.9477035 L54.3708537,5.66708731 C53.1683875,2.27555707 49.8088565,0 46.0165086,0 L27.9799387,0 C24.1842927,0 20.8280598,2.27866075 19.6222955,5.66708731 L18.1092972,9.9477035 L8.81024793,9.9477035 C3.95091116,9.9477035 0,13.6625739 0,18.2353342 L0,54.709186 C0,59.2820259 3.95091116,63 8.81024793,63 L65.1897512,63 C70.049088,63 74,59.2820259 74,54.709186 L73.9966934,18.2353342 C73.9966934,13.6624943 70.0457899,9.9477035 65.1864446,9.9477035 L65.1861994,9.9477035 Z M70.4716721,54.7123693 C70.4716721,57.4541951 68.0998057,59.686221 65.1861994,59.686221 L8.81007879,59.686221 C5.89647253,59.686221 3.52460607,57.4541951 3.52460607,54.7123693 L3.52460607,18.2353342 C3.52460607,15.4935084 5.89647253,13.2614825 8.81007879,13.2614825 L19.3810242,13.2614825 C19.3975403,13.2614825 19.4173629,13.2521555 19.433879,13.2521555 C19.5891366,13.2490518 19.7311847,13.2086323 19.8798376,13.1651171 C19.9525149,13.1464632 20.031797,13.1340325 20.1011678,13.1060516 C20.2200867,13.0532094 20.322498,12.9723784 20.4282075,12.8977706 C20.5074896,12.8480321 20.5900782,12.8045089 20.6528358,12.7392281 C20.7255132,12.6615166 20.7750613,12.5713586 20.841134,12.4812085 C20.9071981,12.3848431 20.9765774,12.294693 21.0195208,12.1889927 C21.0261255,12.1703467 21.0492547,12.1516928 21.0558595,12.1299272 L22.9718222,6.7146362 C23.6886676,4.68156435 25.7037773,3.31379491 27.9798287,3.31379491 L46.0096333,3.31379491 C48.2856847,3.31379491 50.3040587,4.67846066 51.0242361,6.71153251 L52.9401988,12.1268236 C52.9468036,12.1423658 52.9633196,12.1485891 52.9732309,12.1672351 C53.0855451,12.4594509 53.2870527,12.6957049 53.5414235,12.8822283 C53.5942782,12.9226478 53.6438263,12.9475171 53.6999877,12.9817053 C53.970866,13.1464632 54.2747849,13.2614825 54.6150087,13.2614825 L65.1859541,13.2614825 C68.0995604,13.2614825 70.4716721,15.4935084 70.4716721,18.2353342 L70.4716721,54.7123693 Z" id="Fill-1"></path>
                        <path d="M37,16.734375 C26.3714289,16.734375 17.7183099,24.9069683 17.7183099,34.9453125 C17.7183099,44.9836567 26.3714289,53.15625 37,53.15625 C47.6285711,53.15625 56.2816901,44.9836567 56.2816901,34.9453125 C56.2816901,24.9069683 47.6285711,16.734375 37,16.734375 Z M37,49.8443036 C28.3039729,49.8443036 21.2249895,43.1583515 21.2249895,34.9453125 C21.2249895,26.7290155 28.304057,20.0463214 37,20.0463214 C45.695943,20.0463214 52.7750105,26.7322735 52.7750105,34.9453125 C52.7750105,43.158431 45.695943,49.8443036 37,49.8443036 Z" id="Fill-2"></path>
                        <path d="M36.4788732,23.625 C29.5803586,23.625 23.971831,28.9253146 23.971831,35.4375 C23.971831,41.9529257 29.5837894,47.25 36.4788732,47.25 C43.3773879,47.25 48.9859155,41.9496854 48.9859155,35.4375 C48.9859155,28.9252336 43.3773021,23.625 36.4788732,23.625 Z M36.4788732,43.8768516 C31.5504193,43.8768516 27.5433112,40.0922666 27.5433112,35.4375 C27.5433112,30.7827334 31.5504193,26.9981484 36.4788732,26.9981484 C41.4073272,26.9981484 45.4144353,30.7827334 45.4144353,35.4375 C45.4144353,40.0954259 41.4073272,43.8768516 36.4788732,43.8768516 Z" id="Fill-3"></path>
                        <path d="M29.9146404,9.84375 L44.088676,9.84375 C45.0652457,9.84375 45.8591549,9.18226389 45.8591549,8.36856915 C45.8591549,7.5521182 45.0652542,6.890625 44.0853596,6.890625 L29.911324,6.890625 C28.9347543,6.890625 28.1408451,7.55211111 28.1408451,8.36580585 C28.1408451,9.1822568 28.9347458,9.84375 29.9146404,9.84375 Z" id="Fill-4"></path>
                    </g>
                </g>
            </g>
        </g>
    </g>
</svg>