<?xml version="1.0" encoding="UTF-8"?>
<svg width="34px" height="35px" viewBox="0 0 34 35" version="1.1" xmlns="http://www.w3.org/2000/svg" xmlns:xlink="http://www.w3.org/1999/xlink">
    <title>Fill 1</title>
    <g id="Marketing-Website" stroke="none" stroke-width="1" fill="none" fill-rule="evenodd">
        <g id="Desktop" transform="translate(-333.000000, -1275.000000)" fill="#E85A36">
            <g id="section---features" transform="translate(0.000000, 927.000000)">
                <g id="feature-copy-3" transform="translate(182.000000, 333.000000)">
                    <path d="M168,15 C172.658432,15 176.883084,16.9338967 179.954733,20.0623983 C179.977402,20.0828174 180.00007,20.1032365 180.02132,20.1251117 C180.04257,20.146987 180.063824,20.170322 180.082242,20.193657 C183.122627,23.3570306 185,27.7045552 185,32.5 C185,37.295446 183.121358,41.6443519 180.082242,44.8063441 C180.062406,44.8296791 180.04257,44.8530142 180.02132,44.8748894 C180.00007,44.8967646 179.977402,44.9186435 179.954733,44.9376028 C176.881742,48.0674101 172.658432,50 168,50 C163.341567,50 159.116916,48.0661033 156.045266,44.9376028 C156.022598,44.9171837 155.99993,44.8967646 155.97868,44.8748894 C155.957429,44.8530104 155.936175,44.8296791 155.917758,44.8063441 C152.877373,41.6429705 151,37.295446 151,32.5 C151,27.7045552 152.878642,23.3556492 155.917758,20.193657 C155.937594,20.170322 155.957429,20.146987 155.97868,20.1251117 C155.99993,20.1032365 156.022598,20.0813576 156.045266,20.0623983 C159.118258,16.9325899 163.341567,15 168,15 Z M166.866583,17.3772625 C163.651924,17.6295723 160.724735,18.945079 158.415467,20.984002 L159.183361,21.7759375 C159.625412,22.2309896 159.625412,22.9703932 159.183361,23.4254453 C158.741311,23.8804973 158.023033,23.8804973 157.580982,23.4254453 L156.811674,22.6349659 C154.831042,25.0107723 153.553092,28.0255483 153.307984,31.3346446 L154.398893,31.3346446 C155.025119,31.3346446 155.532309,31.8567523 155.532309,32.5013969 C155.532309,33.1460416 155.025119,33.6681493 154.398893,33.6681493 L153.307984,33.6681493 C153.553085,36.9773575 154.831006,39.9906401 156.811674,42.367828 L157.580982,41.5773486 C158.023033,41.1222965 158.741311,41.1222965 159.183361,41.5773486 C159.625412,42.0324007 159.625412,42.7718043 159.183361,43.2268564 L158.415467,44.0187919 C160.723393,46.0576775 163.652033,47.3732141 166.866583,47.6255321 L166.866583,46.5025369 C166.866583,45.8578922 167.373774,45.3357845 168,45.3357845 C168.626226,45.3357845 169.133416,45.8578922 169.133416,46.5025369 L169.133416,47.6255321 C172.348076,47.3732216 175.275264,46.0577149 177.584533,44.0187919 L176.816638,43.2268564 C176.374588,42.7718043 176.374588,42.0324007 176.816638,41.5773486 C177.258689,41.1222965 177.976967,41.1222965 178.419017,41.5773486 L179.188326,42.367828 C181.168958,39.9920215 182.446908,36.9772455 182.692016,33.6681493 L181.37018,33.6681493 C180.743954,33.6681493 180.236764,33.1460416 180.236764,32.5013969 C180.236764,31.8567523 180.743954,31.3346446 181.37018,31.3346446 L182.692016,31.3346446 C182.446915,28.0254363 181.168994,25.0121537 179.188326,22.6349659 L178.419017,23.4254453 C177.976967,23.8804973 177.258689,23.8804973 176.816638,23.4254453 C176.374588,22.9703932 176.374588,22.2309896 176.816638,21.7759375 L177.584533,20.984002 C175.276606,18.9451163 172.347967,17.6295797 169.133416,17.3772625 L169.133416,18.500257 C169.133416,19.1449016 168.626226,19.6670093 168,19.6670093 C167.373774,19.6670093 166.866583,19.1449016 166.866583,18.500257 L166.866583,17.3772625 Z M166.866583,29.8266032 L166.866583,24.3340933 C166.866583,23.6894486 167.373774,23.167341 168,23.167341 C168.626226,23.167341 169.133416,23.6894486 169.133416,24.3340933 L169.133416,29.8266032 C170.133652,30.2772496 170.833541,31.3054478 170.833541,32.5013969 C170.833541,32.8776699 170.764118,33.2364696 170.638028,33.5660724 L174.467706,37.5095086 C174.909757,37.9645607 174.909757,38.7039643 174.467706,39.1590164 C174.025656,39.6140685 173.307378,39.6140685 172.865327,39.1590164 L169.034561,35.2167003 C168.714371,35.3465029 168.364412,35.4179641 168.000304,35.4179641 C166.43619,35.4179641 165.166763,34.1112015 165.166763,32.5010833 C165.166763,31.3066276 165.866652,30.2769733 166.866888,29.8262896 L166.866583,29.8266032 Z M168.409444,32.9039171 C168.507201,32.8003693 168.566704,32.6574393 168.566704,32.5013969 C168.566704,32.1790821 168.313102,31.9180208 167.999996,31.9180208 C167.68689,31.9180208 167.433288,32.1790821 167.433288,32.5013969 C167.433288,32.8237118 167.68689,33.0847731 167.999996,33.0847731 C168.151591,33.0847731 168.290434,33.0235195 168.391016,32.9228876 L168.409444,32.9039171 Z" id="Fill-1"></path>
                </g>
            </g>
        </g>
    </g>
</svg>