<?xml version="1.0" encoding="UTF-8"?>
<svg width="73px" height="63px" viewBox="0 0 73 63" version="1.1" xmlns="http://www.w3.org/2000/svg" xmlns:xlink="http://www.w3.org/1999/xlink">
    <title>Fill 1</title>
    <g id="Marketing-Website" stroke="none" stroke-width="1" fill="none" fill-rule="evenodd">
        <g id="Desktop" transform="translate(-468.000000, -623.000000)" fill="#E85A36">
            <g id="section---how-does-it-work?" transform="translate(0.000000, 441.000000)">
                <g id="Step-box-Copy" transform="translate(361.000000, 107.000000)">
                    <path d="M171.308338,75 L115.691579,75 C110.897696,75 107,78.7179741 107,83.2876307 L107,116.447704 C107,121.01744 110.897696,124.738518 115.691579,124.738518 L134.811717,124.738518 L134.811717,134.686221 L133.071483,134.686221 C132.11339,134.686221 131.334502,135.429187 131.334502,136.343111 C131.334502,137.257034 132.113382,138 133.071483,138 L153.931939,138 C154.890031,138 155.66892,137.257034 155.66892,136.343111 C155.66892,135.429187 154.89004,134.686221 153.931939,134.686221 L152.194958,134.686221 L152.194958,124.738518 L171.308421,124.738518 C176.102305,124.738518 180,121.01744 180,116.447704 L180,83.2876307 C180,78.7178945 176.102305,75 171.308421,75 L171.308338,75 Z M115.989453,78.5492958 L171.946445,78.5492958 C174.838216,78.5492958 177.192308,80.7591706 177.192308,83.4737861 L177.192308,111.380282 L110.74359,111.380282 L110.74359,83.4737861 C110.74359,80.7591706 113.097681,78.5492958 115.989453,78.5492958 Z M149.115385,134.450704 L138.820513,134.450704 L138.820513,124.690141 L149.115385,124.690141 L149.115385,134.450704 Z M171.943087,121.140845 L115.989453,121.140845 C113.097681,121.140845 110.74359,119.050021 110.74359,116.481649 L110.74359,114.929577 L177.192308,114.929577 L177.189026,116.481649 C177.189026,119.050021 174.834934,121.140845 171.943163,121.140845 L171.943087,121.140845 Z" id="Fill-1"></path>
                </g>
            </g>
        </g>
    </g>
</svg>