<?xml version="1.0" encoding="UTF-8"?>
<svg width="35px" height="35px" viewBox="0 0 35 35" version="1.1" xmlns="http://www.w3.org/2000/svg" xmlns:xlink="http://www.w3.org/1999/xlink">
    <title>Fill 1</title>
    <g id="Marketing-Website" stroke="none" stroke-width="1" fill="none" fill-rule="evenodd">
        <g id="Desktop" transform="translate(-820.000000, -1052.000000)" fill="#E85A36">
            <g id="section---features" transform="translate(0.000000, 927.000000)">
                <g id="feature-copy-2" transform="translate(659.000000, 110.000000)">
                    <path d="M163.186218,50 C161.978198,50 161,49.0217847 161,47.8137643 L161,20.4862099 C161,19.2795554 161.978198,18.2999914 163.186218,18.2999914 L180.697821,18.2999914 L180.752545,18.3547152 L178.544437,20.4861924 L163.186061,20.4861924 L163.186061,47.8137468 L188.327468,47.8137468 L188.327468,33.8920244 L190.513687,31.8043262 L190.513687,47.8137815 C190.513687,48.3938358 190.282478,48.9493038 189.873428,49.3597407 C189.462991,49.7701778 188.907558,50 188.327468,50 L163.186218,50 Z M170.171597,40.8077939 C169.928077,40.5642741 169.839149,40.207216 169.940387,39.8788734 C169.959542,39.8145743 171.926869,33.3750644 172.319514,31.9247535 L172.318144,31.9247535 C172.360554,31.7674222 172.442641,31.6251405 172.557559,31.5088529 C172.557559,31.5088529 187.04841,17.0400666 187.558698,16.5336311 C188.491752,15.599212 189.743551,15.0519744 191.063821,15 C192.288267,15.0273601 193.452512,15.540408 194.300735,16.4255495 C195.315848,17.2833378 195.93835,18.5187463 196.021811,19.8444097 C196.043693,21.0551618 195.488271,22.2495232 194.374634,23.3999654 C193.296585,24.5135982 179.97835,37.6253404 179.290144,38.3065417 L179.290144,38.3079076 C179.183431,38.4132504 179.052094,38.4912331 178.908461,38.5336427 C177.815351,38.8619852 171.169033,41.0098883 171.102139,41.0317778 C171.011845,41.0591414 170.916078,41.0742019 170.82168,41.0742019 C170.57816,41.0755568 170.344208,40.9797894 170.171824,40.8074086 L170.171597,40.8077939 Z M189.101989,18.085089 C188.629981,18.5502322 176.215901,30.9466604 174.337607,32.8207521 C174.024314,33.9289213 173.319762,36.2710981 172.731478,38.2097726 C174.555136,37.6214878 176.967184,36.8471598 177.974101,36.5352431 L178.645846,35.8717285 C187.431767,27.2171444 192.194223,22.5110764 192.801525,21.8803085 L192.802894,21.8789391 C193.393911,21.3741147 193.764667,20.6572247 193.834433,19.8815307 C193.746875,19.1413854 193.36929,18.4669085 192.786469,18.0031312 C192.343215,17.5120008 191.722078,17.2192068 191.062661,17.1850242 C190.322516,17.2424833 189.627516,17.5612434 189.102168,18.0852256 L189.101989,18.085089 Z" id="Fill-1"></path>
                </g>
            </g>
        </g>
    </g>
</svg>