<?xml version="1.0" encoding="UTF-8"?>
<svg width="33px" height="35px" viewBox="0 0 33 35" version="1.1" xmlns="http://www.w3.org/2000/svg" xmlns:xlink="http://www.w3.org/1999/xlink">
    <title>Fill 1</title>
    <g id="Marketing-Website" stroke="none" stroke-width="1" fill="none" fill-rule="evenodd">
        <g id="Desktop" transform="translate(-651.000000, -1281.000000)" fill="#E85A36">
            <g id="section---features" transform="translate(0.000000, 927.000000)">
                <g id="feature-copy-4" transform="translate(502.000000, 339.000000)">
                    <path d="M181.425371,46.5496181 L171.478989,35.9988314 C173.008778,33.8685151 173.869628,31.1295371 173.869628,28.1870226 C173.869628,20.8830813 168.322537,15 161.435732,15 C154.548928,15 149,20.885029 149,28.1889704 C149,35.4929117 154.547091,41.375993 161.433896,41.375993 C164.20836,41.375993 166.694037,40.4630003 168.799563,38.8405515 L178.747782,49.3913382 C179.129783,49.7964781 179.608632,50 180.087495,50 C180.566357,50 181.043383,49.7964781 181.427208,49.3913382 C182.19123,48.5791399 182.19123,47.3618164 181.425412,46.5496668 L181.425371,46.5496181 Z M161.435732,37.318897 C156.652617,37.318897 152.827227,33.2618011 152.827227,28.1889704 C152.827227,23.1161396 156.652617,19.0590437 161.435732,19.0590437 C166.218848,19.0590437 170.044238,23.1161396 170.044238,28.1889704 C170.044238,33.2598534 166.217057,37.318897 161.435732,37.318897 Z" id="Fill-1"></path>
                </g>
            </g>
        </g>
    </g>
</svg>