<?xml version="1.0" encoding="UTF-8"?>
<svg width="36px" height="35px" viewBox="0 0 36 35" version="1.1" xmlns="http://www.w3.org/2000/svg" xmlns:xlink="http://www.w3.org/1999/xlink">
    <title>Group 3</title>
    <g id="Marketing-Website" stroke="none" stroke-width="1" fill="none" fill-rule="evenodd">
        <g id="Desktop" transform="translate(-495.000000, -1052.000000)" fill="#E85A36">
            <g id="section---features" transform="translate(0.000000, 927.000000)">
                <g id="feature-copy" transform="translate(339.000000, 110.000000)">
                    <g id="Group-3" transform="translate(156.000000, 15.000000)">
                        <path d="M33.8021078,23.9632426 C33.0139321,23.1750668 31.9650579,22.7399775 30.8510764,22.7399775 C30.107023,22.7399775 29.3924025,22.9333517 28.7660266,23.2969952 L27.3451796,21.8740496 C28.2090628,19.9844834 29.299907,15.8712587 27.5574672,11.6591892 C26.9059094,10.0806855 25.9096053,8.61571607 24.5959433,7.30200022 L18.6243609,1.33257008 C18.6222624,1.33047158 18.6201585,1.32626382 18.6159561,1.32416532 L18.6096498,1.31785905 L18.5381878,1.246397 L18.5339854,1.25059938 C17.6722007,0.432990845 16.480467,0 15.0722109,0 C12.0686632,0 8.2450855,1.9568259 5.09464261,5.10963634 C0.243552444,9.9607265 -1.41878373,15.9007776 1.31131314,18.6288298 C1.46264739,18.780164 1.62869268,18.9146834 1.80104962,19.0407926 L7.32871825,24.5684612 C10.4562929,27.6981343 13.8652819,28.4590295 16.4405201,28.4590295 C16.7768185,28.4590295 17.1005258,28.446417 17.4052928,28.4232958 C19.2255009,28.2908803 20.8712643,27.7822304 21.9011981,27.3177082 L23.3241437,28.7406538 C22.4056456,30.3359455 22.6263112,32.4146998 23.9883464,33.7767349 C24.7765221,34.5649107 25.8253962,35 26.9414763,35 C28.0575563,35 29.1063767,34.5670145 29.8946062,33.7767349 C30.6239701,33.0452726 31.0422176,32.0784552 31.1052802,31.0779542 C32.1057813,31.0170008 33.074751,30.5987317 33.804061,29.8672801 C34.5922367,29.0791044 35.0252276,28.0302303 35.0252276,26.9141502 C35.0252276,25.8001687 34.5901436,24.7513483 33.8019625,23.9631188 L33.8021078,23.9632426 Z M3.25169002,17.323368 L2.85443827,16.9261163 L2.8250162,16.9555437 C1.38732733,15.3287207 2.58120259,10.7864869 6.67775765,6.69010403 C9.38283392,3.98502777 12.676244,2.23837488 15.0706828,2.23837488 C15.9261182,2.23837488 16.5840253,2.46327507 17.0275087,2.90257756 L17.033815,2.90888383 C17.7989072,3.67607451 17.9081907,5.15159023 17.3343796,6.95915347 C16.6722754,9.04420321 15.219897,11.2827126 13.2462293,13.2562727 C10.5432515,15.9655998 7.24935722,17.7121989 4.85545109,17.7121989 C4.20389322,17.7121989 3.66791437,17.5818819 3.25171154,17.3233519 L3.25169002,17.323368 Z M21.3951202,25.0646869 C20.8717539,25.337928 14.3877389,28.4613002 8.91226375,22.9838342 L5.81622048,19.8856924 C8.64532358,19.5304752 12.0084146,17.6682218 14.8333207,14.8433157 C17.0570868,12.6195496 18.7070472,10.0594852 19.4742379,7.63792191 C19.6823232,6.98426554 19.818941,6.3578897 19.8883046,5.76304519 L23.0116822,8.88432428 C24.1151712,9.98781332 24.947523,11.2089799 25.4856004,12.5121494 C27.3142025,16.936598 25.311145,20.9572734 25.092551,21.3672884 L21.3951202,25.0646869 Z M32.2196223,28.284757 C31.6920536,28.8123257 30.8975662,28.988885 30.1934382,28.7324535 C29.7856778,28.5853216 29.3274565,28.6862111 29.020591,28.9930874 C28.7137201,29.2999583 28.6107267,29.7581796 28.7578586,30.1659346 C29.0121863,30.8700626 28.8356269,31.6666861 28.3101621,32.1942172 C27.9444363,32.559943 27.4589237,32.7596289 26.9418314,32.7596289 C26.4247714,32.7596289 25.9392319,32.5578498 25.5735007,32.1921187 C24.8252503,31.4438683 24.8189548,30.2289973 25.5566858,29.4743976 C25.5671998,29.4659928 25.5756046,29.4554788 25.5819109,29.4512764 C25.8005048,29.2431911 25.9245155,28.9552337 25.9287179,28.6546529 C25.9329202,28.3540883 25.8131173,28.0640054 25.6008243,27.8496354 L23.6902192,25.9390303 L25.9644569,23.6647926 L27.875062,25.5753976 C28.0873497,25.7876853 28.3647985,25.9074936 28.677981,25.9032912 C28.9785457,25.8990888 29.26653,25.7750781 29.4746045,25.5585827 C29.4788069,25.5522764 29.4893156,25.5438717 29.4956219,25.5354615 C29.8592438,25.1781459 30.3405647,24.9826947 30.8492092,24.9826947 C31.3662693,24.9826947 31.8518088,25.1844737 32.2175399,25.5502048 C32.5832657,25.9159306 32.7850501,26.4014432 32.7850501,26.9185356 C32.7850501,27.4334917 32.5832711,27.9190366 32.2196384,28.2847678 L32.2196223,28.284757 Z" id="Fill-1"></path>
                        <polygon id="Fill-2" points="8.85953217 12.4322449 7.27473295 10.8474457 10.8352984 7.28688024 12.4200976 8.87167947"></polygon>
                    </g>
                </g>
            </g>
        </g>
    </g>
</svg>