<?xml version="1.0" encoding="UTF-8"?>
<svg width="66px" height="63px" viewBox="0 0 66 63" version="1.1" xmlns="http://www.w3.org/2000/svg" xmlns:xlink="http://www.w3.org/1999/xlink">
    <title>Group 47</title>
    <g id="Marketing-Website" stroke="none" stroke-width="1" fill="none" fill-rule="evenodd">
        <g id="Desktop" transform="translate(-798.000000, -621.000000)" fill="#E85A36">
            <g id="section---how-does-it-work?" transform="translate(0.000000, 441.000000)">
                <g id="Step-box-Copy-2" transform="translate(682.000000, 107.000000)">
                    <g id="Group-47" transform="translate(116.000000, 73.000000)">
                        <polygon id="Fill-1" points="21.12 2.52 26.4 2.52 26.4 0 21.12 0"></polygon>
                        <polygon id="Fill-2" points="31.68 0 34.32 0 34.32 2.52 39.6 2.52 39.6 5.04 31.68 5.04"></polygon>
                        <polygon id="Fill-3" points="42.24 0 44.88 0 44.88 27.72 42.24 27.72 42.24 22.68 39.6 22.68 39.6 25.2 36.96 25.2 36.96 22.68 34.32 22.68 34.32 20.16 31.68 20.16 31.68 12.6 29.04 12.6 29.04 7.56 21.12 7.56 21.12 5.04 26.4 5.04 26.4 2.52 29.04 2.52 29.04 5.04 31.68 5.04 31.68 7.56 39.6 7.56 39.6 10.08 34.32 10.08 34.32 17.64 36.96 17.64 36.96 15.12 39.6 15.12 39.6 20.16 42.24 20.16 42.24 12.6 39.6 12.6 39.6 10.08 42.24 10.08"></polygon>
                        <path d="M0,0 L0,17.64 L18.48,17.64 L18.48,0 L0,0 Z M15.84,15.12 L2.64,15.12 L2.64,2.52 L15.84,2.52 L15.84,15.12 Z" id="Fill-4"></path>
                        <path d="M47.52,0 L47.52,17.64 L66,17.64 L66,0 L47.52,0 Z M63.36,15.12 L50.16,15.12 L50.16,2.52 L63.36,2.52 L63.36,15.12 Z" id="Fill-5"></path>
                        <polygon id="Fill-6" points="5.28 12.6 13.2 12.6 13.2 5.04 5.28 5.04"></polygon>
                        <polygon id="Fill-7" points="52.8 12.6 60.72 12.6 60.72 5.04 52.8 5.04"></polygon>
                        <polygon id="Fill-8" points="21.12 10.08 26.4 10.08 26.4 15.12 23.76 15.12 23.76 12.6 21.12 12.6"></polygon>
                        <polygon id="Fill-9" points="21.12 15.12 23.76 15.12 23.76 17.64 26.4 17.64 26.4 15.12 29.04 15.12 29.04 20.16 31.68 20.16 31.68 22.68 34.32 22.68 34.32 25.2 31.68 25.2 31.68 27.72 29.04 27.72 29.04 22.68 26.4 22.68 26.4 20.16 21.12 20.16"></polygon>
                        <polygon id="Fill-10" points="13.2 22.68 18.48 22.68 18.48 20.16 13.2 20.16"></polygon>
                        <polygon id="Fill-11" points="52.8 22.68 55.44 22.68 55.44 20.16 52.8 20.16"></polygon>
                        <polygon id="Fill-12" points="58.08 20.16 60.72 20.16 60.72 25.2 66 25.2 66 32.76 60.72 32.76 60.72 27.72 58.08 27.72"></polygon>
                        <polygon id="Fill-13" points="63.36 22.68 66 22.68 66 20.16 63.36 20.16"></polygon>
                        <polygon id="Fill-14" points="2.64 25.2 7.92 25.2 7.92 22.68 2.64 22.68"></polygon>
                        <polygon id="Fill-15" points="10.56 25.2 13.2 25.2 13.2 22.68 10.56 22.68"></polygon>
                        <polygon id="Fill-16" points="0 27.72 2.64 27.72 2.64 25.2 0 25.2"></polygon>
                        <polygon id="Fill-17" points="15.84 27.72 18.48 27.72 18.48 25.2 15.84 25.2"></polygon>
                        <polygon id="Fill-18" points="5.28 27.72 10.56 27.72 10.56 32.76 7.92 32.76 7.92 35.28 5.28 35.28 5.28 32.76 2.64 32.76 2.64 30.24 5.28 30.24"></polygon>
                        <polygon id="Fill-19" points="13.2 30.24 15.84 30.24 15.84 27.72 13.2 27.72"></polygon>
                        <polygon id="Fill-20" points="39.6 30.24 42.24 30.24 42.24 27.72 39.6 27.72"></polygon>
                        <polygon id="Fill-21" points="15.84 32.76 18.48 32.76 18.48 30.24 15.84 30.24"></polygon>
                        <polygon id="Fill-22" points="0 42.84 2.64 42.84 2.64 32.76 0 32.76"></polygon>
                        <polygon id="Fill-23" points="10.56 35.28 13.2 35.28 13.2 32.76 10.56 32.76"></polygon>
                        <polygon id="Fill-24" points="7.92 37.8 10.56 37.8 10.56 35.28 7.92 35.28"></polygon>
                        <polygon id="Fill-25" points="15.84 37.8 18.48 37.8 18.48 35.28 15.84 35.28"></polygon>
                        <polygon id="Fill-26" points="21.12 35.28 23.76 35.28 23.76 37.8 26.4 37.8 26.4 42.84 23.76 42.84 23.76 45.36 21.12 45.36"></polygon>
                        <polygon id="Fill-27" points="50.16 37.8 55.44 37.8 55.44 35.28 50.16 35.28"></polygon>
                        <polygon id="Fill-28" points="60.72 37.8 66 37.8 66 35.28 60.72 35.28"></polygon>
                        <polygon id="Fill-29" points="10.56 40.32 13.2 40.32 13.2 37.8 10.56 37.8"></polygon>
                        <polygon id="Fill-30" points="5.28 42.84 7.92 42.84 7.92 40.32 5.28 40.32"></polygon>
                        <polygon id="Fill-31" points="13.2 42.84 18.48 42.84 18.48 40.32 13.2 40.32"></polygon>
                        <polygon id="Fill-32" points="26.4 45.36 29.04 45.36 29.04 42.84 26.4 42.84"></polygon>
                        <path d="M66,42.84 L66,40.32 L60.72,40.32 L60.72,37.8 L55.44,37.8 L55.44,40.32 L44.88,40.32 L44.88,37.8 L47.52,37.8 L47.52,35.28 L50.16,35.28 L50.16,32.76 L55.44,32.76 L55.44,35.28 L58.08,35.28 L58.08,27.72 L55.44,27.72 L55.44,25.2 L52.8,25.2 L52.8,27.72 L50.16,27.72 L50.16,25.2 L52.8,25.2 L52.8,22.68 L50.16,22.68 L50.16,20.16 L47.52,20.16 L47.52,27.72 L44.88,27.72 L44.88,35.28 L39.6,35.28 L39.6,30.24 L36.96,30.24 L36.96,35.28 L34.32,35.28 L34.32,27.72 L31.68,27.72 L31.68,32.76 L29.04,32.76 L29.04,27.72 L21.12,27.72 L21.12,30.24 L23.76,30.24 L23.76,35.28 L26.4,35.28 L26.4,37.8 L29.04,37.8 L29.04,35.28 L31.68,35.28 L31.68,37.8 L29.04,37.8 L29.04,42.84 L31.68,42.84 L31.68,45.36 L34.32,45.36 L34.32,40.32 L36.96,40.32 L36.96,45.36 L39.6,45.36 L39.6,42.84 L42.24,42.84 L42.24,45.36 L39.6,45.36 L39.6,47.88 L36.96,47.88 L36.96,55.44 L31.68,55.44 L31.68,57.96 L36.96,57.96 L36.96,60.48 L31.68,60.48 L31.68,63 L44.88,63 L44.88,60.48 L42.24,60.48 L42.24,57.96 L39.6,57.96 L39.6,50.4 L42.24,50.4 L42.24,52.92 L44.88,52.92 L44.88,55.44 L47.52,55.44 L47.52,52.92 L55.44,52.92 L55.44,55.44 L58.08,55.44 L58.08,52.92 L60.72,52.92 L60.72,50.4 L58.08,50.4 L58.08,45.36 L55.44,45.36 L55.44,42.84 L66,42.84 Z M42.24,40.32 L39.6,40.32 L39.6,37.8 L42.24,37.8 L42.24,40.32 Z M52.8,50.4 L44.88,50.4 L44.88,42.84 L52.8,42.84 L52.8,50.4 Z" id="Fill-33"></path>
                        <polygon id="Fill-34" points="29.04 50.4 31.68 50.4 31.68 45.36 29.04 45.36"></polygon>
                        <polygon id="Fill-35" points="47.52 47.88 50.16 47.88 50.16 45.36 47.52 45.36"></polygon>
                        <polygon id="Fill-36" points="63.36 50.4 66 50.4 66 45.36 63.36 45.36"></polygon>
                        <path d="M0,45.36 L0,63 L18.48,63 L18.48,45.36 L0,45.36 Z M15.84,60.48 L2.64,60.48 L2.64,47.88 L15.84,47.88 L15.84,60.48 Z" id="Fill-37"></path>
                        <polygon id="Fill-38" points="21.12 47.88 26.4 47.88 26.4 52.92 29.04 52.92 29.04 55.44 26.4 55.44 26.4 57.96 23.76 57.96 23.76 50.4 21.12 50.4"></polygon>
                        <polygon id="Fill-39" points="5.28 57.96 13.2 57.96 13.2 50.4 5.28 50.4"></polygon>
                        <polygon id="Fill-40" points="31.68 52.92 34.32 52.92 34.32 50.4 31.68 50.4"></polygon>
                        <polygon id="Fill-41" points="63.36 63 66 63 66 52.92 63.36 52.92"></polygon>
                        <polygon id="Fill-42" points="42.24 57.96 44.88 57.96 44.88 55.44 42.24 55.44"></polygon>
                        <polygon id="Fill-43" points="47.52 55.44 52.8 55.44 52.8 57.96 58.08 57.96 58.08 63 55.44 63 55.44 60.48 50.16 60.48 50.16 63 47.52 63"></polygon>
                        <polygon id="Fill-44" points="58.08 57.96 60.72 57.96 60.72 55.44 58.08 55.44"></polygon>
                        <polygon id="Fill-45" points="29.04 60.48 31.68 60.48 31.68 57.96 29.04 57.96"></polygon>
                        <polygon id="Fill-46" points="23.76 63 26.4 63 26.4 60.48 23.76 60.48"></polygon>
                    </g>
                </g>
            </g>
        </g>
    </g>
</svg>