<?xml version="1.0" encoding="UTF-8"?>
<svg width="124px" height="94px" viewBox="0 0 124 94" version="1.1" xmlns="http://www.w3.org/2000/svg" xmlns:xlink="http://www.w3.org/1999/xlink">
    <title>Fill 1</title>
    <g id="Logo" stroke="none" stroke-width="1" fill="none" fill-rule="evenodd">
        <g id="Artboard" transform="translate(-28.000000, -43.000000)" fill="#20324C">
            <path d="M142.83431,86.6784268 C143.371641,85.2433597 143.73331,83.7669282 143.73331,82.1924379 C143.73331,81.8052645 143.640314,81.4387468 143.598981,81.067062 C148.817279,77.4431177 152,73.0086691 152,67.7789139 C152,53.2934449 127.840258,44.8329054 102.55493,43.278767 C102.260426,43.2581244 101.965935,43.2477899 101.671431,43.2271474 C100.669105,43.1755278 99.6771216,43.1135737 98.6799668,43.0825966 C97.1610219,43.0361311 95.6419447,43 94.1333165,43 C92.6246883,43 91.1056111,43.030977 89.5918245,43.0877639 C88.5894981,43.1187277 87.5975149,43.1806818 86.6003601,43.2323146 C86.3006978,43.2477899 86.0061939,43.2632785 85.71169,43.2839342 C60.4263622,44.8326543 36.2666211,53.2935902 36.2666211,67.7787949 C36.2666211,68.1814569 36.3182869,68.5841188 36.3596201,68.9867676 C31.1825891,72.5900957 28,76.988334 28,82.1919225 C28,85.9862141 29.7359938,89.5327158 32.9857741,92.6971584 C32.4381127,94.1373795 32.1332788,95.6448674 32.1332788,97.2245117 C32.1332788,99.8727583 32.9857741,102.397176 34.5926364,104.756268 C33.0529256,107.03805 32.1332788,109.510796 32.1332788,112.220891 C32.1332788,122.535163 44.8432622,131.022527 66.4193169,134.966021 L83.2158005,136.839974 C85.4426341,136.948383 87.700418,137 89.9996012,137 C118.054583,137 147.86606,128.317044 147.86606,112.221009 C147.86606,109.505628 146.9464,107.027729 145.396386,104.735639 C146.951571,102.443549 147.86606,99.9501877 147.86606,97.2244985 C147.86606,93.2443975 146.016449,89.723666 142.833728,86.6778982 L142.83431,86.6784268 Z M40,97.4634881 C45.5896012,100.368002 52.8886937,102.711858 61.7011627,104.306822 L78.4945634,106.156548 C80.7158308,106.258466 82.9783577,106.309418 85.2771189,106.309418 C105.810321,106.309418 127.237478,101.692799 137.27464,93 C138.364604,94.2738847 139,95.5273937 139,96.6942343 C139,103.501957 120.134368,113 89.409282,113 C87.2448786,113 85.1062624,112.949048 83.2827786,112.872606 L67.0421491,111.089147 C50.1085719,108.021576 40.9296607,102.085364 40,97.4640621 L40,97.4634881 Z M94.0004582,51 C118.036415,51 131,57.6735907 131,60.4052467 C131,63.1318049 118.035485,69.8104935 93.9274127,69.8104935 C88.0287887,69.8104935 83.2299645,74.4875623 83.2299645,80.2370068 L83.2351574,92.9151952 C83.2351574,95.167001 81.3727625,97 79.0848444,97 C76.7969263,97 74.9345315,95.167001 74.9345315,92.9151952 L74.9345315,76.8726962 C74.9345315,72.0322351 71.7283649,67.7840381 66.9452123,66.3033127 C59.4278999,63.9698108 57,61.3249487 57,60.4109981 C57,57.6741136 69.9645151,51.0006536 93.9995418,51.0006536 L94.0004582,51 Z M90,98 C90.6722815,96.5225241 91.0653161,94.8951538 91.0653161,93.1830605 L91.0653161,92.0848827 C91.8875672,92.0998593 92.6891921,92.1397928 93.5217827,92.1397928 C107.5576,92.1397928 122.031622,90.0383319 133,86 C127.86995,91.5158078 112.490391,97.2762004 90,98 L90,98 Z M143,67.3672449 C143,74.3114867 124.150395,84 93.4516454,84 C92.6155227,84 91.8103444,83.9896079 91,83.9688103 L91,80.4914999 C91,79.7118362 91.3612923,79.1868665 91.670962,78.8802517 C92.1199877,78.4332431 92.7341873,78.1889545 93.4516586,78.1889545 C114.730963,78.1889545 137.54428,72.7936879 138.437469,61 C141.389749,63.1570687 143,65.3713542 143,67.3672848 L143,67.3672449 Z M48.4462267,61 C48.7666753,65.0375474 51.844084,70.3653181 63.8585972,74.2567142 C65.1404179,74.674576 66,75.8132994 66,77.103389 L66,81 C51.6098254,77.4691016 44,71.7026095 44,67.3516323 C44,65.3615407 45.5666292,63.1469402 48.4457058,61 L48.4462267,61 Z M39.6091242,77 C44.4628625,82.5171881 54.058698,86.9924611 67.3959313,89.7560811 L67.3959313,93.5064596 C67.3959313,94.7246819 67.6449735,95.887593 68,97 L63.9251714,96.5670737 C45.5905451,93.3704501 36,86.9924095 36,82.3462547 C36,80.6648861 37.2929194,78.8224298 39.6085952,77.0002062 L39.6091242,77 Z M89.500297,127.999692 C87.3398285,127.999692 85.2051003,127.948308 83.3849317,127.871231 L67.173828,126.072754 C49.3325058,122.809797 40,116.299407 40,111.55684 C40,111.053275 40.139222,110.539424 40.3454743,110.015272 C46.2133368,114.048947 54.9171195,117.260469 65.9669647,119.274807 L82.7298347,121.140105 C84.9470638,121.242881 87.2054774,121.294262 89.5000594,121.294262 C108.274632,121.294262 127.796333,117.388975 138.644216,110 C138.85563,110.529255 139,111.05338 139,111.556958 C139,118.421992 120.168667,128 89.499439,128 L89.500297,127.999692 Z" id="Fill-1"></path>
        </g>
    </g>
</svg>