<?xml version="1.0" encoding="UTF-8"?>
<svg width="36px" height="35px" viewBox="0 0 36 35" version="1.1" xmlns="http://www.w3.org/2000/svg" xmlns:xlink="http://www.w3.org/1999/xlink">
    <title>Fill 1</title>
    <g id="Marketing-Website" stroke="none" stroke-width="1" fill="none" fill-rule="evenodd">
        <g id="Desktop" transform="translate(-172.000000, -1052.000000)" fill="#E85A36">
            <g id="section---features" transform="translate(0.000000, 927.000000)">
                <g id="feature" transform="translate(20.000000, 110.000000)">
                    <path d="M184.72162,42.5594647 C186.556114,40.0276015 187.664701,37.0671864 187.935139,33.983248 C188.205529,30.8972906 187.627311,27.7993226 186.26081,25.00219 C186.23793,24.9395017 186.208815,24.8808515 186.173454,24.8262549 C184.692569,21.8798176 182.392117,19.398689 179.532047,17.6612881 C176.674214,15.9261651 173.371454,15.002019 169.9999,15 C160.074264,15 152,22.8504014 152,32.5008454 L152.002082,32.5008454 C152.00624,38.6547442 155.33205,44.3551379 160.76482,47.5141427 C160.806416,47.5444748 160.852176,47.5727878 160.897936,47.5970576 L161.001931,47.6496352 C161.444956,47.9003986 161.900462,48.1309356 162.366367,48.3453203 L162.453722,48.3898114 L162.453722,48.3877872 C162.49116,48.4080086 162.530679,48.4241867 162.570199,48.4363216 C166.295361,50.0804329 170.486321,50.4403897 174.448908,49.4575882 C178.413253,48.4747867 181.911905,46.2078306 184.372415,43.0287907 C184.540892,42.9175681 184.665685,42.7497194 184.721844,42.5596252 L184.72162,42.5594647 Z M184.617625,39.3603744 C184.617625,39.3521481 184.609308,39.3400132 184.605149,39.3319216 L184.605149,39.3218109 L182.092564,34.4602981 L182.092564,32.2256982 C182.094641,31.7221523 181.83465,31.2529919 181.40409,30.9718808 L179.407355,29.6776311 C179.043369,29.4430457 178.594125,29.3662035 178.169805,29.4713587 L176.012906,29.9951157 L172.635069,28.5855742 L172.204525,25.6371179 L173.198739,24.6704686 L175.721707,24.6704686 L176.591112,25.9424573 L176.593189,25.9444815 C176.8303,26.2882653 177.204669,26.5228558 177.626912,26.5916064 L181.620382,27.2387313 C181.869974,27.279174 182.125806,27.2609768 182.367054,27.1821053 L184.948273,26.344881 C186.770307,30.5269126 186.649651,35.2710628 184.617566,39.3603744 L184.617625,39.3603744 Z M175.220724,19.4935006 C175.622152,19.4935006 175.859253,19.2912767 176.431224,18.7857013 C176.510263,18.7169456 176.614258,18.6259443 176.660018,18.5875206 L176.6621,18.5875206 C176.793134,18.5025867 176.899211,18.3832724 176.965769,18.2437368 L176.967845,18.2437368 C178.251187,18.8402824 179.451305,19.598661 180.532843,20.4985787 L180.524526,20.5066704 L179.538618,21.267068 L177.622977,19.9525762 L177.620895,19.950552 C177.552255,19.9040418 177.475298,19.8676371 177.39626,19.8393293 C177.05723,19.7260825 176.044284,19.7665304 175.827997,19.819108 L175.825921,19.821127 C175.782237,19.8312377 175.740641,19.8453968 175.699045,19.8615749 L173.465205,20.7796639 L172.69979,20.609791 L173.448539,19.4874176 L175.220724,19.4935006 Z M162.803694,18.3610321 C162.86817,18.4520333 162.949291,18.5309049 163.044969,18.591569 L163.044969,18.5935932 C163.228003,18.7108833 163.433917,18.7897549 163.650219,18.8261544 L165.039627,19.0526481 L164.744276,19.1476926 L164.746358,19.1456684 C164.394847,19.2589152 164.097392,19.4914764 163.906078,19.7988504 L162.109017,22.7129314 L159.301128,24.3489666 L157.179584,25.062823 C156.46619,25.2124694 155.952417,25.8252397 155.948264,26.535058 L155.948264,28.4764327 C155.948264,28.5532801 155.954504,28.6281032 155.964903,28.7029264 L155.320144,29.2630777 L155.320144,29.2651019 C155.247346,29.3277902 155.187029,29.4026185 155.13711,29.4835091 L154.201147,28.8768166 L154.201147,28.8788356 C155.322248,24.3065101 158.471232,20.454305 162.799355,18.3612443 L162.803694,18.3610321 Z M160.214168,37.2208397 L157.626719,36.7152747 L156.794746,35.1035196 L156.794746,34.1409084 L158.146722,32.8264165 L158.516949,33.544311 L158.516949,33.5463352 C158.77694,34.0579676 159.315643,34.3815404 159.904281,34.3795214 L163.685617,34.3795214 L165.237267,36.8871562 C165.518056,37.3401437 166.023501,37.6172166 166.566347,37.6172166 L167.340068,37.6172166 L167.136236,38.6040562 L164.800482,40.8710123 C164.509295,41.1541321 164.344977,41.5363603 164.347058,41.9367494 L164.347058,43.1258543 L162.304585,44.6142415 C162.000916,44.836692 161.79292,45.1582406 161.715947,45.5181973 L161.455957,44.8831866 L161.45388,38.701332 C161.45388,37.9834376 160.935975,37.3666499 160.214254,37.2210209 L160.214168,37.2208397 Z M170.0003,48.278392 C167.820504,48.2802506 165.661581,47.8537176 163.65654,47.0225556 L163.477664,45.9103291 L165.765603,44.2439567 L165.763526,44.2459809 C165.988162,44.0821754 166.119195,43.8273739 166.117113,43.5564046 L166.117113,42.025566 L168.5756,39.6352419 C168.700399,39.5159276 168.783591,39.3622381 168.81687,39.1964084 L169.282774,36.9274333 L169.282774,36.9254091 C169.334769,36.6746456 169.268212,36.4117524 169.09974,36.2135717 C168.931264,36.0133668 168.681672,35.8980957 168.415419,35.8980957 L166.684916,35.8980957 L164.946106,33.0750264 C164.785951,32.8161764 164.498922,32.6584384 164.188997,32.6584384 L160.037439,32.6584384 L159.180493,30.9900469 L159.180493,30.9880227 C159.051536,30.7413077 158.810267,30.5694158 158.529451,30.5249246 C158.248662,30.4804387 157.96371,30.5694158 157.76196,30.7655723 L155.282707,33.1760866 C155.118394,33.3378678 155.024798,33.556275 155.024798,33.7827791 L155.024798,35.2994845 C155.022716,35.4349769 155.055995,35.5664261 155.116312,35.6857352 L156.235336,37.8556226 L156.237412,37.8556226 C156.358047,38.092227 156.586841,38.2620999 156.853046,38.3126533 L159.685907,38.8627094 L159.685907,44.6625015 L159.68383,44.6645257 C155.937849,41.671599 153.768703,37.20447 153.768703,32.4902947 C153.768703,31.8977871 153.804058,31.3072468 153.872698,30.7187774 L155.420141,31.7218209 C155.563655,31.8168655 155.734209,31.867424 155.908926,31.867424 C156.14396,31.867424 156.36859,31.7764227 156.534995,31.6146415 C156.70139,31.4548845 156.794986,31.2344531 156.794986,31.00593 L156.794986,30.2779404 L157.618653,29.566103 L157.616571,29.566103 C157.799605,29.408365 157.905682,29.1859145 157.911922,28.9493153 C157.920245,28.7450672 157.849523,28.5448623 157.716407,28.3851259 L157.716407,26.7046203 L159.966914,25.9483125 C160.02515,25.9280911 160.081308,25.9038214 160.133309,25.8714651 L163.203275,24.0756677 C163.328074,24.0028687 163.434146,23.9017516 163.506944,23.7804182 L165.37887,20.7470074 L166.982488,20.2333507 C167.246637,20.1484169 167.452551,19.9461878 167.542,19.6913707 L167.853991,18.7753007 L167.853991,18.7732765 C167.937188,18.5366721 167.908068,18.2737789 167.772875,18.0574011 C167.63976,17.8430422 167.417206,17.6933959 167.161395,17.652948 L165.399689,17.3678092 C168.606925,16.4477012 172.028317,16.5124137 175.198067,17.551836 C175.119029,17.6205918 175.019192,17.7055308 174.938076,17.7742865 L172.962161,17.7742865 C172.66265,17.7742865 172.381883,17.9219138 172.219641,18.1666047 L170.516187,20.7166909 L170.516187,20.7146719 C170.360191,20.9512762 170.331071,21.246505 170.43923,21.507374 C170.549466,21.7682481 170.782418,21.9603614 171.063223,22.0210306 L173.347009,22.5265956 L173.344932,22.5265956 C173.525884,22.5670384 173.715159,22.5508602 173.883625,22.4800803 L176.258887,21.5033359 C176.392003,21.4952494 176.620797,21.4932252 176.783033,21.4972684 L179.045999,23.0503682 L179.048076,23.0523924 C179.370466,23.2728186 179.801031,23.2606838 180.108848,23.0240794 L181.620935,21.8511785 C181.687493,21.7986009 181.747811,21.7379316 181.797729,21.6691759 C182.710796,22.611545 183.50326,23.65704 184.156379,24.7854705 L181.85598,25.5316831 L178.008086,24.9088384 L176.930701,23.3314585 C176.766388,23.0928299 176.489758,22.949251 176.194411,22.9472268 L172.829088,22.9472268 C172.594053,22.949251 172.3715,23.0382281 172.205095,23.2000093 L170.636832,24.7227718 C170.441317,24.9148851 170.347721,25.1838457 170.38724,25.4507615 L170.957135,29.3051926 C171.000813,29.6024662 171.200487,29.8552487 171.485439,29.9745786 L175.595412,31.6894595 L175.59333,31.6874405 C175.770124,31.7622636 175.967715,31.7784418 176.156995,31.7319264 L178.511492,31.1596092 L180.331449,32.3405862 L180.331449,34.6661977 L180.329373,34.6661977 C180.329373,34.799666 180.362652,34.9311151 180.425051,35.0524485 L182.995834,40.0433862 L182.993752,41.9524046 C179.930015,45.9342417 175.114902,48.2802506 170.000598,48.2802506 L170.0003,48.278392 Z" id="Fill-1"></path>
                </g>
            </g>
        </g>
    </g>
</svg>